<svg width="44" height="44" viewBox="0 0 44 44" fill="none" xmlns="http://www.w3.org/2000/svg">
<mask id="path-1-inside-1_235_638" fill="white">
<path d="M13.75 23.8333L13.9645 24.4411C14.7987 26.8043 15.2157 27.9867 16.1672 28.6596C17.1187 29.3324 18.3728 29.3333 20.8789 29.3333H23.1202C25.6273 29.3333 26.8803 29.3333 27.8318 28.6596C28.7843 27.9867 29.2013 26.8043 30.0355 24.4411L30.25 23.8333M22 23.8333V14.6667V23.8333ZM22 23.8333C21.3583 23.8333 20.1593 22.0055 19.7083 21.5417L22 23.8333ZM22 23.8333C22.6417 23.8333 23.8407 22.0055 24.2917 21.5417L22 23.8333Z"/>
<path d="M0 5C0 2.23858 2.23858 0 5 0H39C41.7614 0 44 2.23858 44 5V39C44 41.7614 41.7614 44 39 44H5C2.23858 44 0 41.7614 0 39V5Z"/>
</mask>
<path d="M14.693 23.5005C14.5092 22.9797 13.938 22.7065 13.4172 22.8903C12.8964 23.0742 12.6232 23.6454 12.807 24.1662L14.693 23.5005ZM13.9645 24.4411L13.0215 24.7739L13.0215 24.7739L13.9645 24.4411ZM27.8318 28.6596L27.2548 27.8428L27.2539 27.8435L27.8318 28.6596ZM30.0355 24.4411L30.9785 24.7739L30.9785 24.7739L30.0355 24.4411ZM31.193 24.1661C31.3768 23.6453 31.1036 23.0742 30.5828 22.8903C30.062 22.7065 29.4908 22.9797 29.307 23.5005L31.193 24.1661ZM23 14.6667C23 14.1144 22.5523 13.6667 22 13.6667C21.4477 13.6667 21 14.1144 21 14.6667H23ZM20.4253 20.8445C20.0403 20.4486 19.4072 20.4397 19.0112 20.8247C18.6153 21.2097 18.6064 21.8428 18.9914 22.2388L20.4253 20.8445ZM25.0086 22.2388C25.3936 21.8428 25.3847 21.2097 24.9888 20.8247C24.5928 20.4397 23.9597 20.4486 23.5747 20.8445L25.0086 22.2388ZM12.807 24.1662L13.0215 24.7739L14.9075 24.1083L14.693 23.5005L12.807 24.1662ZM13.0215 24.7739C13.431 25.934 13.7644 26.8831 14.1221 27.6206C14.491 28.381 14.9264 29.0069 15.5899 29.4761L16.7446 27.8431C16.4566 27.6394 16.2078 27.3377 15.9216 26.7478C15.6244 26.1351 15.3321 25.3113 14.9075 24.1082L13.0215 24.7739ZM15.5899 29.4761C16.253 29.945 16.9879 30.1475 17.8277 30.2424C18.6425 30.3346 19.6483 30.3333 20.8789 30.3333V28.3333C19.6033 28.3333 18.7291 28.3316 18.0525 28.2551C17.4009 28.1814 17.033 28.047 16.7446 27.8431L15.5899 29.4761ZM20.8789 30.3333H23.1202V28.3333H20.8789V30.3333ZM23.1202 30.3333C24.351 30.3333 25.357 30.3348 26.1716 30.2428C27.0115 30.1479 27.7464 29.9454 28.4097 29.4757L27.2539 27.8435C26.9657 28.0476 26.5984 28.1819 25.9471 28.2554C25.2705 28.3319 24.3965 28.3333 23.1202 28.3333V30.3333ZM28.4088 29.4763C29.0729 29.0072 29.5087 28.3813 29.8777 27.6208C30.2356 26.8832 30.569 25.934 30.9785 24.7739L29.0925 24.1082C28.6678 25.3113 28.3756 26.135 28.0783 26.7477C27.7922 27.3374 27.5432 27.6391 27.2548 27.8428L28.4088 29.4763ZM30.9785 24.7739L31.193 24.1661L29.307 23.5005L29.0925 24.1083L30.9785 24.7739ZM23 23.8333V14.6667H21V23.8333H23ZM22 22.8333C22.1475 22.8333 22.2258 22.8819 22.2077 22.8722C22.1975 22.8668 22.1564 22.8417 22.0831 22.7792C21.9356 22.6536 21.7529 22.4596 21.5456 22.215C21.342 21.9747 21.1425 21.7192 20.9528 21.4777C20.7809 21.2588 20.5837 21.0074 20.4253 20.8445L18.9914 22.2388C19.0585 22.3078 19.1803 22.4588 19.3801 22.7132C19.562 22.9448 19.787 23.2332 20.0197 23.5079C20.2488 23.7782 20.5143 24.0702 20.7862 24.3018C20.9226 24.4179 21.084 24.5392 21.2639 24.6355C21.4359 24.7276 21.6921 24.8333 22 24.8333V22.8333ZM22 24.8333C22.3079 24.8333 22.5641 24.7276 22.7361 24.6355C22.916 24.5392 23.0774 24.4179 23.2138 24.3018C23.4857 24.0702 23.7512 23.7782 23.9803 23.5079C24.213 23.2332 24.438 22.9448 24.6199 22.7132C24.8197 22.4588 24.9415 22.3078 25.0086 22.2388L23.5747 20.8445C23.4163 21.0074 23.2191 21.2588 23.0472 21.4777C22.8575 21.7192 22.658 21.9747 22.4544 22.215C22.2471 22.4596 22.0644 22.6536 21.9169 22.7792C21.8436 22.8417 21.8025 22.8668 21.7923 22.8722C21.7742 22.8819 21.8525 22.8333 22 22.8333V24.8333ZM5 1H39V-1H5V1ZM43 5V39H45V5H43ZM39 43H5V45H39V43ZM1 39V5H-1V39H1ZM5 43C2.79086 43 1 41.2091 1 39H-1C-1 42.3137 1.68629 45 5 45V43ZM43 39C43 41.2091 41.2091 43 39 43V45C42.3137 45 45 42.3137 45 39H43ZM39 1C41.2091 1 43 2.79086 43 5H45C45 1.68629 42.3137 -1 39 -1V1ZM5 -1C1.68629 -1 -1 1.68629 -1 5H1C1 2.79086 2.79086 1 5 1V-1Z" fill="#171717" mask="url(#path-1-inside-1_235_638)"/>
</svg>
