<svg xmlns="http://www.w3.org/2000/svg" width="120" height="75" viewBox="0 0 120 75" fill="none"><g clip-path="url(#clip0_388_576)"><path d="M110.029 74.985H0L9.97243 42.3047H120L110.029 74.985Z" fill="white"/><path d="M46.9386 30.0525V9.61675H55.9041V16.3852H60.027V9.61675H68.991V30.0525H60.027V23.281H55.9041V30.0525H46.9386ZM91.3021 18.6894L94.7064 9.61675H85.965L83.2436 16.3867H81.6407V9.61675H72.6757V30.0541H81.6407V23.2825H83.7836L86.5064 30.0541H95.4536L91.3021 18.6894ZM108.139 23.8279C105.975 23.8279 105.467 22.1327 105.467 20.8117C105.467 19.4968 105.975 17.841 108.139 17.841C110.258 17.841 110.767 19.4968 110.767 20.8117C110.767 22.1327 110.258 23.8279 108.139 23.8279ZM111.361 11.8921C108.646 11.8921 106.782 12.951 105.511 14.3129C105.553 12.5707 106.823 10.7438 108.561 10.0242C111.572 8.74718 115.049 9.63946 117.509 7.47168V0.0153809C117.509 0.0153809 115.406 0.880378 111.526 1.33788C109.195 1.61358 105.889 2.35588 102.966 4.20253C99.3178 6.49607 96.7328 10.2772 96.7328 17.9244C96.7328 27.909 102.497 30.7115 108.434 30.7115C114.286 30.7115 119.501 27.7393 119.501 21.195C119.501 14.9082 115.77 11.8921 111.361 11.8921ZM31.5022 23.5385C30.2701 23.5385 29.2495 22.8129 28.867 22.0903V17.5775C29.2918 16.8533 30.2701 16.1307 31.5022 16.1307C33.6672 16.1307 34.6031 18.0032 34.6031 19.8347C34.6031 20.0619 34.588 20.2937 34.5578 20.5179C34.3521 22.104 33.3966 23.5385 31.5022 23.5385ZM43.8226 19.8347C43.8226 14.8082 41.5457 10.0575 36.4143 9.10775C36.2979 9.08654 36.18 9.06682 36.0591 9.05018C35.7582 9.00625 35.4467 8.97139 35.1247 8.95475C34.9115 8.94261 34.6953 8.93653 34.4746 8.93653C34.2856 8.93653 34.0996 8.94111 33.9137 8.95168C33.9061 8.95168 33.9001 8.95168 33.891 8.95475C32.2506 9.05168 30.8113 9.56368 29.7136 10.3332C28.9562 10.8392 28.3151 11.4437 27.8056 12.0845L27.0512 9.61675H19.9438V38.2163H28.9093V28.818C29.5383 29.3815 30.3305 29.8678 31.2845 30.2071C32.172 30.5676 33.1925 30.7343 34.4746 30.7343C40.9772 30.7343 43.8226 25.4534 43.8226 19.8347Z" fill="white"/></g><defs><clipPath id="clip0_388_576"><rect width="120" height="75" fill="white"/></clipPath></defs></svg>