<svg xmlns="http://www.w3.org/2000/svg" viewBox="1040 1960 1920 1080" width="1920" height="1080"><path fill="rgb(255, 255, 255)" stroke="none" fill-opacity="1" stroke-width="1" stroke-opacity="1" color="rgb(51, 51, 51)" class="cls-1" id="tSvg584e6da552" title="Path 1" d="M 2329.2840239037696 2584.1467003697767 C 2329.2840239037696 2682.2601072398475 2329.2840239037696 2780.3735141099187 2329.2840239037696 2878.4869209799895 C 2350.4557567868483 2878.4869209799895 2371.627489669926 2878.4869209799895 2392.799222553005 2878.4869209799895 C 2392.799222553005 2838.3988763167063 2392.799222553005 2798.3108316534253 2392.799222553005 2758.222786990142 C 2437.949945220358 2758.222786990142 2483.1006678877106 2758.222786990142 2528.251390555064 2758.222786990142 C 2528.251390555064 2798.3108316534253 2528.251390555064 2838.3988763167063 2528.251390555064 2878.4869209799895 C 2549.423123438143 2878.4869209799895 2570.5948563212223 2878.4869209799895 2591.7665892043005 2878.4869209799895 C 2591.7665892043005 2780.3735141099187 2591.7665892043005 2682.2601072398475 2591.7665892043005 2584.1467003697767 C 2570.5948563212223 2584.1467003697767 2549.423123438143 2584.1467003697767 2528.251390555064 2584.1467003697767 C 2528.251390555064 2624.3722267274875 2528.251390555064 2664.5977530851965 2528.251390555064 2704.823279442906 C 2483.1006678877106 2704.823279442906 2437.949945220358 2704.823279442906 2392.799222553005 2704.823279442906 C 2392.799222553005 2664.5977530851965 2392.799222553005 2624.3722267274875 2392.799222553005 2584.1467003697767C 2371.627489669926 2584.1467003697767 2350.4557567868483 2584.1467003697767 2329.2840239037696 2584.1467003697767Z" style=""/><path fill="rgb(255, 255, 255)" stroke="none" fill-opacity="1" stroke-width="1" stroke-opacity="1" color="rgb(51, 51, 51)" class="cls-1" id="tSvgaabff22aa1" title="Path 2" d="M 2734.8396102349648 2759.7755214213203 C 2748.010256445762 2759.7755214213203 2761.1809026565566 2759.7755214213203 2774.351548867353 2759.7755214213203 C 2806.8574803630386 2799.345987940877 2839.3634118587242 2838.916454460433 2871.869343354411 2878.4869209799895 C 2899.2461656992095 2878.4869209799895 2926.622988044009 2878.4869209799895 2953.9998103888074 2878.4869209799895 C 2910.6693551645926 2827.748088577844 2867.3388999403774 2777.0092561756987 2824.008444716164 2726.2704237735534 C 2861.8700075334386 2678.895849305628 2899.7315703507143 2631.521274837702 2937.5931331679876 2584.1467003697767 C 2913.2500898950866 2584.1467003697767 2888.907046622185 2584.1467003697767 2864.5640033492837 2584.1467003697767 C 2833.012701001554 2626.199924547519 2801.4613986538247 2668.2531487252604 2769.9100963060955 2710.3063729030027 C 2758.2199342823856 2710.3063729030027 2746.5297722586747 2710.3063729030027 2734.8396102349648 2710.3063729030027 C 2734.8396102349648 2668.2531487252604 2734.8396102349648 2626.199924547519 2734.8396102349648 2584.1467003697767 C 2713.6516971968367 2584.1467003697767 2692.4637841587064 2584.1467003697767 2671.2758711205793 2584.1467003697767 C 2671.2758711205793 2682.2601072398475 2671.2758711205793 2780.3735141099187 2671.2758711205793 2878.4869209799895 C 2692.4637841587064 2878.4869209799895 2713.6516971968367 2878.4869209799895 2734.8396102349648 2878.4869209799895C 2734.8396102349648 2838.916454460433 2734.8396102349648 2799.345987940877 2734.8396102349648 2759.7755214213203Z" style=""/><path fill="rgb(255, 255, 255)" stroke="none" fill-opacity="1" stroke-width="1" stroke-opacity="1" color="rgb(51, 51, 51)" class="cls-1" id="tSvgd55d2d4235" title="Path 3" d="M 2220.0437070829003 2878.4869209799895 C 2242.356140897013 2878.4869209799895 2264.6685747111237 2878.4869209799895 2286.981008525236 2878.4869209799895 C 2245.6002619845603 2780.3735141099187 2204.219515443884 2682.2601072398475 2162.838768903209 2584.1467003697767 C 2141.246351988828 2584.1467003697767 2119.6539350744447 2584.1467003697767 2098.0615181600633 2584.1467003697767 C 2055.7180523939055 2682.2601072398475 2013.3745866277486 2780.3735141099187 1971.031120861591 2878.4869209799895 C 1992.4860064580469 2878.4869209799895 2013.9408920545027 2878.4869209799895 2035.3957776509585 2878.4869209799895 C 2043.9469895949453 2858.721905616451 2052.498201538933 2838.9568902529113 2061.04941348292 2819.1918748893727 C 2106.054514754822 2819.1918748893727 2151.0596160267246 2819.1918748893727 2196.0647172986255 2819.1918748893727C 2204.0577138933845 2838.9568902529113 2212.0507104881426 2858.721905616451 2220.0437070829003 2878.4869209799895Z M 2079.9801948915574 2769.989602601414 C 2096.3949621899014 2730.60514072726 2112.8097294882455 2691.2206788531057 2129.22449678659 2651.83621697895 C 2144.6441845493528 2691.2206788531057 2160.063872312115 2730.60514072726 2175.483560074876 2769.989602601414C 2143.6491050137693 2769.989602601414 2111.8146499526642 2769.989602601414 2079.9801948915574 2769.989602601414Z" style=""/><path fill="rgb(255, 255, 255)" stroke="none" fill-opacity="1" stroke-width="1" stroke-opacity="1" color="rgb(51, 51, 51)" class="cls-1" id="tSvg895ea6fa74" title="Path 4" d="M 1838.1758677450753 2698.8792179485513 C 1812.4089708277634 2698.8792179485513 1786.6420739104515 2698.8792179485513 1760.875176993139 2698.8792179485513 C 1760.875176993139 2676.9711055836474 1760.875176993139 2655.062993218742 1760.875176993139 2633.154880853838 C 1816.2679378072162 2633.154880853838 1871.6606986212935 2633.154880853838 1927.0534594353715 2633.154880853838 C 1927.1019999005216 2616.818820692484 1927.150540365672 2600.4827605311298 1927.1990808308221 2584.1467003697767 C 1850.5779565909907 2584.1467003697767 1773.9568323511587 2584.1467003697767 1697.3357081113272 2584.1467003697767 C 1697.3357081113272 2682.2601072398475 1697.3357081113272 2780.3735141099187 1697.3357081113272 2878.4869209799895 C 1741.5560718632983 2878.4869209799895 1785.7764356152693 2878.4869209799895 1829.9967993672408 2878.4869209799895 C 1904.4093324427313 2878.4869209799895 1947.0764013098908 2844.787731528325 1947.0764013098908 2786.0264378984266C 1947.0764013098908 2729.8368606701665 1908.4139208176355 2698.8792179485513 1838.1758677450753 2698.8792179485513Z M 1827.13291192337 2829.4787404959284 C 1805.047000279959 2829.4787404959284 1782.9610886365494 2829.4787404959284 1760.875176993139 2829.4787404959284 C 1760.875176993139 2802.281626474824 1760.875176993139 2775.084512453718 1760.875176993139 2747.887398432613 C 1782.9610886365494 2747.887398432613 1805.047000279959 2747.887398432613 1827.13291192337 2747.887398432613 C 1867.445768230738 2747.887398432613 1886.2309282439246 2761.5466091318835 1886.2309282439246 2788.6952002020134C 1886.2309282439246 2816.4260666838372 1866.3536077648553 2829.4787404959284 1827.13291192337 2829.4787404959284Z" style=""/><path fill="rgb(255, 255, 255)" stroke="none" fill-opacity="1" stroke-width="1" stroke-opacity="1" color="rgb(51, 51, 51)" class="cls-1" id="tSvg6abe18e432" title="Path 5" d="M 2469.3960765602615 2246.5967919169348 C 2491.570979056448 2230.2607317555803 2513.745881552634 2213.924671594226 2535.9207840488193 2197.5886114328728 C 2461.7105029114564 2197.5886114328728 2387.5002217740916 2197.5886114328728 2313.289940636728 2197.5886114328728 C 2313.289940636728 2295.710105461439 2313.289940636728 2393.831599490006 2313.289940636728 2491.953093518572 C 2387.5002217740916 2491.953093518572 2461.7105029114564 2491.953093518572 2535.9207840488193 2491.953093518572 C 2535.9207840488193 2475.617033357219 2535.9207840488193 2459.2809731958646 2535.9207840488193 2442.9449130345115 C 2482.8822357945346 2442.9449130345115 2429.843687540249 2442.9449130345115 2376.8051392859643 2442.9449130345115 C 2376.8051392859643 2417.8261987468063 2376.8051392859643 2392.7074844591016 2376.8051392859643 2367.5887701713964 C 2422.0448528060933 2367.5887701713964 2467.2845663262215 2367.5887701713964 2512.524279846351 2367.5887701713964 C 2512.524279846351 2351.2446228515464 2512.524279846351 2334.9004755316973 2512.524279846351 2318.556328211848 C 2467.2845663262215 2318.556328211848 2422.0448528060933 2318.556328211848 2376.8051392859643 2318.556328211848 C 2376.8051392859643 2294.5698161135433 2376.8051392859643 2270.5833040152384 2376.8051392859643 2246.5967919169348C 2407.668785044063 2246.5967919169348 2438.532430802163 2246.5967919169348 2469.3960765602615 2246.5967919169348Z" style=""/><path fill="rgb(255, 255, 255)" stroke="none" fill-opacity="1" stroke-width="1" stroke-opacity="1" color="rgb(51, 51, 51)" class="cls-1" id="tSvg696b5a9be" title="Path 6" d="M 2145.2185800536313 2312.345390487135 C 2119.451683136319 2312.345390487135 2093.6847862190066 2312.345390487135 2067.9178893016947 2312.345390487135 C 2067.9178893016947 2290.429190963735 2067.9178893016947 2268.5129914403346 2067.9178893016947 2246.5967919169348 C 2109.0559335166186 2246.5967919169348 2150.193977731542 2246.5967919169348 2191.3320219464667 2246.5967919169348 C 2213.5069244426522 2230.2607317555803 2235.681826938838 2213.924671594227 2257.856729435025 2197.5886114328728 C 2173.36395976331 2197.5886114328728 2088.871190091597 2197.5886114328728 2004.3784204198828 2197.5886114328728 C 2004.3784204198828 2295.710105461439 2004.3784204198828 2393.831599490006 2004.3784204198828 2491.953093518572 C 2048.5987841718543 2491.953093518572 2092.8191479238253 2491.953093518572 2137.0395116757963 2491.953093518572 C 2211.452044751288 2491.953093518572 2254.119113618448 2458.253904066909 2254.119113618448 2399.4926104370093C 2254.119113618448 2343.2787717332626 2215.4566331261913 2312.345390487135 2145.2185800536313 2312.345390487135Z M 2134.0785433016254 2442.9449130345115 C 2111.9926316582146 2442.9449130345115 2089.906720014805 2442.9449130345115 2067.820808371394 2442.9449130345115 C 2067.820808371394 2415.7477990134066 2067.820808371394 2388.5506849923013 2067.820808371394 2361.3535709711955 C 2089.906720014805 2361.3535709711955 2111.9926316582146 2361.3535709711955 2134.0785433016254 2361.3535709711955 C 2174.3913996089923 2361.3535709711955 2193.17655962218 2374.988520194979 2193.17655962218 2402.13711126511C 2193.17655962218 2429.867977746932 2173.29923914311 2442.9449130345115 2134.0785433016254 2442.9449130345115Z" style=""/><path fill="rgb(255, 255, 255)" stroke="none" fill-opacity="1" stroke-width="1" stroke-opacity="1" color="rgb(51, 51, 51)" class="cls-1" id="tSvg18fc1038156" title="Path 7" d="M 2716.2971525475314 2197.5886114328728 C 2675.8467649222366 2197.5886114328728 2635.3963772969437 2197.5886114328728 2594.94598967165 2197.5886114328728 C 2594.94598967165 2295.710105461439 2594.94598967165 2393.831599490006 2594.94598967165 2491.953093518572 C 2616.125812632253 2491.953093518572 2637.3056355928566 2491.953093518572 2658.485458553461 2491.953093518572 C 2658.485458553461 2464.1575297687846 2658.485458553461 2436.361966018995 2658.485458553461 2408.5664022692076 C 2677.7155728305265 2408.5664022692076 2696.9456871075913 2408.5664022692076 2716.175801384655 2408.5664022692076 C 2793.525032601742 2408.5664022692076 2841.5800931005915 2367.9041693527292 2841.5800931005915 2302.931937998117 C 2841.5800931005915 2237.959706643505 2793.525032601742 2197.5886114328728 2716.175801384655 2197.5886114328728 M 2714.8166683604454 2359.5582217851465 C 2696.039598424784 2359.5582217851465 2677.262528489123 2359.5582217851465 2658.485458553461 2359.5582217851465 C 2658.485458553461 2321.904411829076 2658.485458553461 2284.250601873004 2658.485458553461 2246.5967919169348 C 2677.262528489123 2246.5967919169348 2696.039598424784 2246.5967919169348 2714.8166683604454 2246.5967919169348 C 2755.5178483890163 2246.5967919169348 2777.9192730559043 2266.6610321448143 2777.9192730559043 2303.07750685104C 2777.9192730559043 2339.493981557266 2755.493578156441 2359.558221785145 2714.8166683604454 2359.5582217851465Z" style=""/><path fill="rgb(255, 255, 255)" stroke="none" fill-opacity="1" stroke-width="1" stroke-opacity="1" color="rgb(51, 51, 51)" class="cls-1" id="tSvgb6620890aa" title="Path 8" d="M 1895.30799522704 2428.218197413806 C 1878.4590691383169 2437.3519016971686 1859.5753450818845 2442.0836488287887 1840.4087291419914 2441.974454015025 C 1783.1309802645758 2441.974454015025 1741.5560718632983 2401.0938678191624 1741.5560718632983 2344.782983213466 C 1741.5560718632983 2288.47209860777 1783.1309802645758 2247.7370812648305 1840.4087291419914 2247.7370812648305 C 1861.1077453227 2247.439240690824 1881.358519937463 2253.77329590803 1898.1961529034866 2265.811880502764 C 1913.3893184955468 2254.6192531446877 1928.5824840876069 2243.426625786612 1943.7756496796671 2232.2339984285363 C 1942.77248006656 2231.352498152502 1941.7693104534533 2230.470997876469 1940.7661408403455 2229.5894976004356 C 1914.0688850076515 2206.2256967063013 1878.6100752153188 2193.876605683338 1837.9574356518983 2193.876605683338 C 1793.858423062803 2193.876605683338 1753.8368095463375 2208.724628681479 1725.2707458053546 2235.727650898687 C 1696.7046820643727 2262.7306731158947 1680.7105987973307 2301.0880658610936 1680.7105987973307 2343.2787717332626 C 1680.7105987973307 2385.469477605432 1696.4862499711953 2424.4576687132967 1725.100854177328 2452.455411425478 C 1753.715458383461 2480.4531541376596 1793.7613421325018 2495.9804984494417 1837.5448416981208 2495.9804984494417 C 1883.3427705674787 2495.9804984494417 1923.3401138513693 2480.016447578891 1950.4499636378412 2450.975461420761 C 1936.745372310391 2440.874600459608 1923.0407809829417 2430.773739498453 1909.3361896554923 2420.6728785373C 1904.6601248460086 2423.1879848294684 1899.9840600365242 2425.7030911216375 1895.30799522704 2428.218197413806Z" style=""/><path fill="rgb(255, 255, 255)" stroke="none" fill-opacity="1" stroke-width="1" stroke-opacity="1" color="rgb(51, 51, 51)" class="cls-1" id="tSvg76c53b33dd" title="Path 9" d="M 1529.6041307842834 2343.3515561597237 C 1529.609845866122 2328.7725808772398 1528.3102490401648 2314.2223482433346 1525.7208935722554 2299.8749920867353 C 1508.3029566608036 2312.7012254609467 1490.885019749352 2325.5274588351585 1473.4670828379 2338.353692209369 C 1473.4670828379 2340.027734017983 1473.4670828379 2341.6775143511095 1473.4670828379 2343.3515561597237 C 1473.6159046370262 2487.1604717526657 1317.9750092342308 2577.202090373585 1193.313471112718 2505.426469532581 C 1068.6519329912053 2433.6508486915764 1068.4659057422982 2253.8897042003987 1192.9786220646852 2181.85640944846 C 1255.2385321240743 2145.8377072226954 1332.652728043328 2148.7384917775958 1392.0404525481842 2189.315448291752 C 1407.7756533344232 2177.7265501673855 1423.5108541206632 2166.1376520430194 1439.246054906902 2154.5487539186533 C 1293.8506379146806 2037.2603806973357 1075.9642851907086 2121.293512735775 1047.0506199000824 2305.808391504215 C 1018.1369546094563 2490.323270272655 1199.8812258497328 2636.933736799302 1374.1903081325809 2569.707231252179C 1467.7971491387889 2533.6054932719353 1529.5326583152387 2443.6473895437503 1529.6041307842834 2343.3515561597237Z" style=""/><path fill="rgb(255, 255, 255)" stroke="none" fill-opacity="1" stroke-width="1" stroke-opacity="1" color="rgb(51, 51, 51)" class="cls-1" id="tSvg595f037217" title="Path 10" d="M 1478.9521553998907 2194.992633555746 C 1490.5000596811665 2209.8854041992395 1500.273965525125 2226.071665780754 1508.0764344901022 2243.2244468242184 C 1434.3596480817664 2297.5378032814724 1360.6428616734304 2351.851159738725 1286.9260752650953 2406.1645161959777 C 1256.1271501271963 2386.8604688666956 1225.3282249892977 2367.5564215374134 1194.5292998513987 2348.25237420813 C 1194.5292998513987 2325.034142166919 1194.5292998513987 2301.8159101257083 1194.5292998513987 2278.5976780844967 C 1225.3282249892977 2297.90172541378 1256.1271501271963 2317.205772743062 1286.9260752650953 2336.509820072344C 1350.9347686433598 2289.337424566812 1414.9434620216255 2242.1650290612797 1478.9521553998907 2194.992633555746Z" style=""/><defs> </defs></svg>