<svg xmlns="http://www.w3.org/2000/svg" width="168" height="61" viewBox="0 0 168 61" fill="none"><g clip-path="url(#clip0_388_579)"><path fill-rule="evenodd" clip-rule="evenodd" d="M11.4142 0.369629L8.5589 8.19096H48.1275L50.9829 0.369629H11.4142ZM7.13034 12.0999L4.275 19.9194H43.8436L46.699 12.0999H7.13034ZM2.85534 23.8301L0 31.6496H39.5686L42.4222 23.8301H2.85534Z" fill="white"/><mask id="mask0_388_579" style="mask-type:luminance" maskUnits="userSpaceOnUse" x="59" y="12" width="109" height="49"><path d="M59.3657 60.1608H167.68V12.2502H59.3657V60.1608Z" fill="white"/></mask><g mask="url(#mask0_388_579)"><path fill-rule="evenodd" clip-rule="evenodd" d="M84.1206 34.6302V34.7952C85.9289 35.4589 87.6562 36.6195 88.5613 37.3649C91.3574 39.6861 92.5917 42.7527 92.5917 46.7314C92.5917 53.2816 89.137 58.0057 83.462 59.4982C81.7347 59.9951 79.9264 60.1619 76.5527 60.1619H59.3657V12.2502H74.5807C77.706 12.2502 79.8436 12.4153 81.7347 12.9122C87.246 14.4046 90.8644 18.2183 90.8644 24.2681C90.8644 27.5015 89.7128 30.238 87.8217 32.0605C86.9995 32.8892 85.8479 33.8848 84.1206 34.6302ZM68.9056 39.6861V52.286H75.4857C77.4577 52.286 79.2678 52.121 80.5849 50.877C81.9002 49.6329 82.476 48.0589 82.476 45.9861C82.476 44.412 82.064 42.9195 81.2417 41.8423C79.8436 40.1014 78.1163 39.6861 75.1564 39.6861H68.9056ZM68.8229 31.3968H74.1686C75.8132 31.3968 76.6355 31.3968 77.4577 31.1483C79.6799 30.4846 81.0779 28.497 81.0779 25.7605C81.0779 22.5289 79.5971 21.1181 77.4577 20.4562C76.5527 20.2077 75.6494 20.1243 73.8393 20.1243H68.8229V31.3968ZM106.902 60.1619V20.2893H93.1675V12.2502H131.329L128.616 20.2893H116.442V60.1619H106.902ZM134.289 60.1619V12.2502H165.213L162.5 20.2893H143.748V30.8999H151.397C157.565 30.8999 160.773 32.3924 162.993 34.2983C164.72 35.7908 167.68 39.1058 167.68 45.656C167.68 52.121 164.638 55.6845 162.088 57.5088C159.128 59.5798 156.003 60.1619 149.669 60.1619H134.289ZM143.748 52.121H150.904C153.617 52.121 155.262 51.4573 156.413 49.9648C156.989 49.2195 157.811 47.892 157.811 45.4058C157.811 42.9195 156.989 41.1786 155.344 39.9345C154.358 39.1892 153.041 38.7757 150.821 38.7757H143.748V52.121Z" fill="white"/></g></g><defs><clipPath id="clip0_388_579"><rect width="168" height="60.2609" fill="white" transform="translate(0 0.369629)"/></clipPath></defs></svg>